<mxfile host="app.diagrams.net" modified="2024-05-02T08:34:07.453Z" agent="Mozilla/5.0 (X11; Linux x86_64) AppleWebKit/537.36 (KHTML, like Gecko) Chrome/124.0.0.0 Safari/537.36" version="22.1.18" etag="tSvkAmY6V1apY3Ukc4Wa" type="github">
  <diagram name="Page-1" id="b2XKhPKjuEDNGkI894ZJ">
    <mxGraphModel>
      <root>
        <mxCell id="0" />
        <mxCell id="1" parent="0" />
      </root>
    </mxGraphModel>
  </diagram>
</mxfile>
